<?xml version="1.0" encoding="UTF-8" standalone="no"?>
<svg
   width="120"
   height="29"
   viewBox="0 0 120 29"
   fill="none"
   version="1.1"
   id="svg6"
   sodipodi:docname="Group45.svg"
   inkscape:version="1.2 (dc2aedaf03, 2022-05-15)"
   xmlns:inkscape="http://www.inkscape.org/namespaces/inkscape"
   xmlns:sodipodi="http://sodipodi.sourceforge.net/DTD/sodipodi-0.dtd"
   xmlns="http://www.w3.org/2000/svg"
   xmlns:svg="http://www.w3.org/2000/svg">
  <defs
     id="defs10" />
  <sodipodi:namedview
     id="namedview8"
     pagecolor="#ffffff"
     bordercolor="#000000"
     borderopacity="0.25"
     inkscape:showpageshadow="2"
     inkscape:pageopacity="0.0"
     inkscape:pagecheckerboard="0"
     inkscape:deskcolor="#d1d1d1"
     showgrid="false"
     inkscape:zoom="28.068966"
     inkscape:cx="68.296069"
     inkscape:cy="14.517813"
     inkscape:window-width="1920"
     inkscape:window-height="1001"
     inkscape:window-x="-9"
     inkscape:window-y="-9"
     inkscape:window-maximized="1"
     inkscape:current-layer="svg6" />
  <g
     id="g223"
     transform="translate(46.706388,-0.21375922)">
    <path
       d="M 32.8511,9.76553 8.73057,0.829306 C 8.42205,0.7153 8.07929,0.873058 7.96553,1.18182 c -2.5e-4,2.5e-4 -2.5e-4,5e-4 -5e-4,7.5e-4 L 5.29489,8.45071 C 5.18138,8.75948 5.33964,9.102 5.64841,9.2155 h 5e-4 l 2.7959,1.0266 -0.61604,1.6783 c -0.11325,0.3088 0.04501,0.6508 0.35377,0.7643 l 5.59276,2.0533 -0.411,1.1189 c -0.3735,1.002 -0.025,2.1301 0.8491,2.7463 v 3.0402 H 6.19744 C 5.80942,20.7564 5.01537,20.1123 4.06707,19.9158 v -1.251 c 0,-0.3291 -0.26651,-0.5958 -0.59578,-0.5958 H 1.06941 c -0.329013,0 -0.595777,0.2667 -0.595777,0.5958 v 9.5317 c 0,0.3293 0.266764,0.5958 0.595777,0.5958 h 2.40188 c 0.32927,0 0.59578,-0.2665 0.59578,-0.5958 v -1.2508 c 0.9483,-0.1968 1.74235,-0.8406 2.13037,-1.7279 h 8.01596 v 0.5958 c 0,0.9871 0.8,1.7874 1.7871,1.7874 0.987,0 1.7873,-0.8003 1.7873,-1.7874 V 19.214 c 0.5415,-0.2685 0.9598,-0.7343 1.1683,-1.3018 l 0.411,-1.1188 5.0333,1.8469 c 0.0658,0.0242 0.135,0.0365 0.205,0.0365 0.2498,0 0.4733,-0.1558 0.5595,-0.3903 l 0.2233,-0.6083 c 1.9386,0.3648 3.8057,-0.911 4.1702,-2.8494 0.1348,-0.7163 0.0473,-1.4566 -0.2507,-2.1216 l 3.6114,-1.8544 c 0.2928,-0.15 0.4085,-0.509 0.2585,-0.8018 C 33.1096,9.91804 32.9941,9.81553 32.8541,9.76378 Z M 15.4047,19.146 15.898,19.3248 c 0.2245,0.0805 0.46,0.1267 0.6982,0.137 v 2.1816 H 15.4047 Z M 2.87576,27.601 H 1.6652 v -8.3405 h 1.21056 z m 2.38288,-3.5745 c -10e-4,0.7571 -0.47803,1.4319 -1.19157,1.6854 v -4.5623 c 0.71354,0.2533 1.19057,0.9281 1.19157,1.6854 z M 6.4687,22.835 h 10.1275 v 1.1915 H 6.4687 Z m 9.5318,3.5744 c -0.3291,0 -0.5958,-0.2668 -0.5958,-0.5958 v -0.5958 h 1.1915 v 0.5958 c 0,0.329 -0.2667,0.5958 -0.5957,0.5958 z m 2.2483,-10.0263 -0.411,1.1188 c -0.227,0.6171 -0.9113,0.9336 -1.5288,0.7071 l -1.1206,-0.4105 c -0.6175,-0.2268 -0.9345,-0.9113 -0.7078,-1.5291 0,0 0,0 0,-3e-4 l 0.4113,-1.118 3.0197,1.1085 z m 6.0033,0.9353 -15.09976,-5.5448 0.41127,-1.1188 8.94749,3.2857 c 0.2118,0.077 0.4493,0.0288 0.614,-0.1253 l 1.6719,-1.5738 4.6872,1.7216 z m 4.028,-2.3283 c -0.3775,1.0178 -1.3928,1.6538 -2.4731,1.549 l 0.9205,-2.5076 1.5036,-0.7743 c 0.2353,0.5505 0.2528,1.1701 0.049,1.7329 z m -2.0108,-2.0599 c -0.0316,0.0027 -0.0628,0.0082 -0.0936,0.0165 l -5.3115,-1.9504 c -0.2117,-0.0777 -0.4493,-0.0295 -0.6138,0.1251 L 18.5766,12.6954 6.61871,8.3042 8.87733,2.15438 31.1675,10.4126 Z"
       fill="#e3b873"
       id="path2" />
    <path
       d="m 12.1292,8.70337 -0.5254,1.41993 m 2.8152,-0.5799 -0.5255,1.4199 m 2.7475,-0.5934 -0.5255,1.4199"
       stroke="#e3b873"
       stroke-linecap="round"
       id="path4" />
  </g>
  <rect
     x="6.5159683"
     y="13.692703"
     width="32"
     height="1.54334"
     rx="0.77167201"
     fill="#e3b873"
     id="rect124" />
  <rect
     x="88.528252"
     y="13.870837"
     width="32"
     height="1.54334"
     rx="0.77167201"
     fill="#e3b873"
     id="rect124-4"
     inkscape:transform-center-x="2.6719902"
     inkscape:transform-center-y="0.32063882" />
</svg>
